HIERARCHY
ROOT Hips
{
	OFFSET -3.958830 18.904000 13.208200
	CHANNELS 6 Xposition Yposition Zposition Zrotation Yrotation Xrotation 
	JOINT LHipJoint
	{
		OFFSET 0.000000 0.000000 0.000000
		CHANNELS 3 Zrotation Yrotation Xrotation
		JOINT LeftUpLeg
		{
			OFFSET 1.800000 -1.400000 0.085000
			CHANNELS 3 Zrotation Yrotation Xrotation
			JOINT LeftLeg
			{
				OFFSET 2.215000 -6.000000 0.000000
				CHANNELS 3 Zrotation Yrotation Xrotation
				JOINT LeftFoot
				{
					OFFSET 2.500000 -6.900000 0.000000
					CHANNELS 3 Zrotation Yrotation Xrotation
					JOINT LeftToeBase
					{
						OFFSET 0.200000 -0.500000 1.950000
						CHANNELS 3 Zrotation Yrotation Xrotation
						End Site
						{
							OFFSET 0.000000 0.000000 0.000000
						}
					}
				}
			}
		}
	}
	JOINT RHipJoint
	{
		OFFSET 0.000000 0.000000 0.000000
		CHANNELS 3 Zrotation Yrotation Xrotation
		JOINT RightUpLeg
		{
			OFFSET -1.800000 -1.400000 0.085000
			CHANNELS 3 Zrotation Yrotation Xrotation
			JOINT RightLeg
			{
				OFFSET -2.215000 -6.000000 0.000000
				CHANNELS 3 Zrotation Yrotation Xrotation
				JOINT RightFoot
				{
					OFFSET -2.500000 -6.900000 0.000000
					CHANNELS 3 Zrotation Yrotation Xrotation
					JOINT RightToeBase
					{
						OFFSET -0.200000 -0.500000 1.950000
						CHANNELS 3 Zrotation Yrotation Xrotation
						End Site
						{
							OFFSET 0.000000 0.000000 0.000000
						}
					}
				}
			}
		}
	}
	JOINT LowerBack
	{
		OFFSET 0.000000 0.000000 0.000000
		CHANNELS 3 Zrotation Yrotation Xrotation
		JOINT Spine
		{
			OFFSET -0.087000 1.940000 -0.288900
			CHANNELS 3 Zrotation Yrotation Xrotation
			JOINT Spine1
			{
				OFFSET 0.000000 1.950000 0.060000
				CHANNELS 3 Zrotation Yrotation Xrotation
				JOINT Neck
				{
					OFFSET 0.000000 0.000000 0.000000
					CHANNELS 3 Zrotation Yrotation Xrotation
					JOINT Neck1
					{
						OFFSET 0.000000 1.600000 0.340000
						CHANNELS 3 Zrotation Yrotation Xrotation
						JOINT Head
						{
							OFFSET 0.000000 1.667000 -0.240000
							CHANNELS 3 Zrotation Yrotation Xrotation
							End Site
							{
								OFFSET 0.000000 0.000000 0.000000
							}
						}
					}
				}
				JOINT LeftShoulder
				{
					OFFSET 0.000000 0.000000 0.000000
					CHANNELS 3 Zrotation Yrotation Xrotation
					JOINT LeftArm
					{
						OFFSET 2.700000 1.550000 -0.730000
						CHANNELS 3 Zrotation Yrotation Xrotation
						JOINT LeftForeArm
						{
							OFFSET 5.450000 0.000000 0.000000
							CHANNELS 3 Zrotation Yrotation Xrotation
							JOINT LeftHand
							{
								OFFSET 3.450000 0.000000 0.000000
								CHANNELS 3 Zrotation Yrotation Xrotation
								JOINT LeftHandIndex1
								{
									OFFSET 0.750000 0.000000 0.000000
									CHANNELS 3 Zrotation Yrotation Xrotation
									End Site
									{
										OFFSET 0.000000 0.000000 0.000000
									}
								}
							}
						}
					}
				}
				JOINT RightShoulder
				{
					OFFSET 0.000000 0.000000 0.000000
					CHANNELS 3 Zrotation Yrotation Xrotation
					JOINT RightArm
					{
						OFFSET -2.700000 1.550000 -0.730000
						CHANNELS 3 Zrotation Yrotation Xrotation
						JOINT RightForeArm
						{
							OFFSET -5.450000 0.000000 0.000000
							CHANNELS 3 Zrotation Yrotation Xrotation
							JOINT RightHand
							{
								OFFSET -3.450000 0.000000 0.000000
								CHANNELS 3 Zrotation Yrotation Xrotation
								JOINT RightHandIndex1
								{
									OFFSET -0.750000 0.000000 0.000000
									CHANNELS 3 Zrotation Yrotation Xrotation
									End Site
									{
										OFFSET 0.000000 0.000000 0.000000
									}
								}
							}
						}
					}
				}
			}
		}
	}
}
MOTION
Frames: 4
Frame Time: 0.016667
-0.115800 16.338710 -2.604650 -11.863326 -35.307807 18.943546 -15.893407 13.545977 3.076231 -6.088682 1.530579 4.061212 -9.701193 7.062840 10.475231 -0.178763 5.342267 2.942267 0.807800 0.412810 0.703250 18.060912 -7.234628 4.812290 28.551008 10.824104 -35.059153 4.754027 -1.963157 5.649692 0.001229 -0.744409 4.281747 0.284530 0.130610 0.264540 -2.567432 -7.066627 -8.170068 7.435533 -12.276224 16.033989 -1.559237 -11.033264 -0.207809 1.731636 -10.038978 -8.271029 -24.275708 26.591825 19.106503 -7.495620 22.452810 -15.727470 -21.525384 0.254487 -1.046481 -47.521828 -9.202958 0.024335 -3.289110 -10.586256 -1.192314 -3.788450 2.919891 0.710620 0.148000 0.071360 0.298960 19.854825 1.221904 5.620407 36.416179 -12.581815 -10.041999 69.341243 53.301794 27.713739 1.758345 -2.079897 -0.214540 0.193010 -0.260300 -0.409480 
-0.130830 16.329110 -2.476520 -14.005485 -39.803569 19.484926 -15.885476 13.539247 3.129568 -6.108718 1.220270 2.828087 -12.308023 8.156989 13.623299 -0.022230 5.632626 2.826387 0.766870 0.357810 0.703680 18.034237 -7.338653 4.861796 28.836177 10.680812 -31.089122 6.496657 -2.370263 5.784055 -0.073395 -0.941395 4.232668 0.201720 0.059130 0.237140 -2.558131 -6.886166 -8.375862 7.980343 -10.550744 18.466135 -0.869136 -8.877673 -2.251800 2.749270 -10.144592 -8.468920 -24.548338 26.792193 21.289525 -8.961380 23.653690 -16.515900 -23.347163 1.539991 -1.276906 -45.954668 -5.049392 -1.318142 -3.366597 -8.027234 -1.117923 -3.719677 2.881202 0.757260 0.073680 0.118180 0.282230 19.694752 1.025784 5.837341 36.139275 -13.194096 -10.356216 74.308236 55.462192 31.825154 1.894507 -2.028959 -0.197090 0.156820 -0.275470 -0.414920 
-0.132780 16.340450 -2.358440 -15.198587 -42.738946 18.986978 -15.905270 13.643538 3.226402 -5.486237 0.912326 2.009199 -15.146549 9.586952 16.599376 0.171034 6.097657 2.648523 0.724910 0.298000 0.717390 17.966099 -7.439319 4.807201 27.625797 10.233256 -27.974462 8.746005 -2.799544 5.757214 -0.152005 -1.125801 4.188684 0.111290 -0.029060 0.210860 -2.397094 -6.924067 -8.568705 7.439185 -9.212255 21.538517 0.058703 -7.169768 -4.023666 3.769253 -9.812487 -8.738755 -23.824511 26.580653 24.823866 -11.356540 24.767410 -18.352260 -24.584316 2.455321 -1.259771 -44.051537 -1.017919 -2.565376 -4.559773 -6.201372 -1.053699 -3.633968 2.836097 0.817830 -0.006980 0.174970 0.252740 19.023840 0.955850 5.987129 37.027969 -13.200149 -10.965383 77.992338 57.591525 35.461309 2.036439 -1.931554 -0.177970 0.121120 -0.285680 -0.431820 
-0.132150 16.360150 -2.243270 -15.081587 -44.656431 17.477875 -15.948805 13.800516 3.348098 -4.909744 0.579568 1.140282 -17.795138 11.445480 20.436645 0.405273 6.773197 2.412759 0.678210 0.235880 0.714740 17.873239 -7.521132 4.677330 25.321268 9.674361 -25.758853 10.913030 -3.143271 5.674737 -0.220525 -1.283941 4.157168 0.027160 -0.089970 0.189150 -2.124569 -7.103020 -8.724035 5.732379 -7.940335 24.486184 1.527754 -5.757754 -5.610167 4.534158 -9.214690 -9.124642 -22.635257 26.135890 28.840573 -13.387540 25.386950 -19.988360 -25.304510 3.045729 -0.887320 -42.809806 3.241642 -3.897531 -5.426687 -5.407884 -1.076188 -3.552219 2.785380 0.873740 -0.074430 0.225700 0.236790 18.470151 1.051153 6.165288 38.430027 -13.253517 -11.809413 80.318565 60.236041 38.691727 2.174829 -1.800720 -0.167040 0.107020 -0.288740 -0.438050 
